TITLE ""
FILE "DISC1Track37.mp3" MP3
  TRACK 01 AUDIO
    TITLE "DISC1Track37_01"
    INDEX 01 00:00:00
  TRACK 02 AUDIO
    TITLE "DISC1Track37_02"
    INDEX 01 00:03:05
  TRACK 03 AUDIO
    TITLE "DISC1Track37_03"
    INDEX 01 00:03:26
  TRACK 04 AUDIO
    TITLE "DISC1Track37_04"
    INDEX 01 00:07:22
  TRACK 05 AUDIO
    TITLE "DISC1Track37_05"
    INDEX 01 00:10:44
  TRACK 06 AUDIO
    TITLE "DISC1Track37_06"
    INDEX 01 00:13:62
  TRACK 07 AUDIO
    TITLE "DISC1Track37_07"
    INDEX 01 00:14:08
  TRACK 08 AUDIO
    TITLE "DISC1Track37_08"
    INDEX 01 00:17:44
  TRACK 09 AUDIO
    TITLE "DISC1Track37_09"
    INDEX 01 00:20:37
  TRACK 10 AUDIO
    TITLE "DISC1Track37_10"
    INDEX 01 00:23:21
  TRACK 11 AUDIO
    TITLE "DISC1Track37_11"
    INDEX 01 00:23:45
  TRACK 12 AUDIO
    TITLE "DISC1Track37_12"
    INDEX 01 00:27:05
  TRACK 13 AUDIO
    TITLE "DISC1Track37_13"
    INDEX 01 00:30:04
  TRACK 14 AUDIO
    TITLE "DISC1Track37_14"
    INDEX 01 00:33:04
  TRACK 15 AUDIO
    TITLE "DISC1Track37_15"
    INDEX 01 00:33:29
  TRACK 16 AUDIO
    TITLE "DISC1Track37_16"
    INDEX 01 00:37:04
  TRACK 17 AUDIO
    TITLE "DISC1Track37_17"
    INDEX 01 00:40:55
  TRACK 18 AUDIO
    TITLE "DISC1Track37_18"
    INDEX 01 00:44:21
  TRACK 19 AUDIO
    TITLE "DISC1Track37_19"
    INDEX 01 00:44:47
  TRACK 20 AUDIO
    TITLE "DISC1Track37_20"
    INDEX 01 00:49:09
  TRACK 21 AUDIO
    TITLE "DISC1Track37_21"
    INDEX 01 00:52:36
  TRACK 22 AUDIO
    TITLE "DISC1Track37_22"
    INDEX 01 00:55:62
  TRACK 23 AUDIO
    TITLE "DISC1Track37_23"
    INDEX 01 00:56:09
  TRACK 24 AUDIO
    TITLE "DISC1Track37_24"
    INDEX 01 01:01:16
  TRACK 25 AUDIO
    TITLE "DISC1Track37_25"
    INDEX 01 01:04:22
  TRACK 26 AUDIO
    TITLE "DISC1Track37_26"
    INDEX 01 01:07:30
  TRACK 27 AUDIO
    TITLE "DISC1Track37_27"
    INDEX 01 01:07:54
  TRACK 28 AUDIO
    TITLE "DISC1Track37_28"
    INDEX 01 01:11:61
  TRACK 29 AUDIO
    TITLE "DISC1Track37_29"
    INDEX 01 01:15:24
  TRACK 30 AUDIO
    TITLE "DISC1Track37_30"
    INDEX 01 01:18:54
  TRACK 31 AUDIO
    TITLE "DISC1Track37_31"
    INDEX 01 01:19:02
  TRACK 32 AUDIO
    TITLE "DISC1Track37_32"
    INDEX 01 01:20:74
  TRACK 33 AUDIO
    TITLE "DISC1Track37_33"
    INDEX 01 01:22:71
  TRACK 34 AUDIO
    TITLE "DISC1Track37_34"
    INDEX 01 01:24:58
  TRACK 35 AUDIO
    TITLE "DISC1Track37_35"
    INDEX 01 01:25:09
  TRACK 36 AUDIO
    TITLE "DISC1Track37_36"
    INDEX 01 01:29:24
  TRACK 37 AUDIO
    TITLE "DISC1Track37_37"
    INDEX 01 01:32:52
  TRACK 38 AUDIO
    TITLE "DISC1Track37_38"
    INDEX 01 01:36:01
  TRACK 39 AUDIO
    TITLE "DISC1Track37_39"
    INDEX 01 01:36:18
  TRACK 40 AUDIO
    TITLE "DISC1Track37_40"
    INDEX 01 01:39:58
  TRACK 41 AUDIO
    TITLE "DISC1Track37_41"
    INDEX 01 01:43:14
  TRACK 42 AUDIO
    TITLE "DISC1Track37_42"
    INDEX 01 01:46:42
  TRACK 43 AUDIO
    TITLE "DISC1Track37_43"
    INDEX 01 01:46:62
  TRACK 44 AUDIO
    TITLE "DISC1Track37_44"
    INDEX 01 01:51:06
  TRACK 45 AUDIO
    TITLE "DISC1Track37_45"
    INDEX 01 01:53:73
  TRACK 46 AUDIO
    TITLE "DISC1Track37_46"
    INDEX 01 01:56:60
